# xmcd
#
# Track frame offsets: 
#        150
#        23692
#        52295
#        73972
#        105812
#        129980
#        156417
#        185250
#        208060
#        235002
#
# Disc length: 3314 seconds
#
# Revision: 0
# Processed by: cddbd v1.5.2PL0 Copyright (c) Steve Scherf et al.
# Submitted via: ExactAudioCopy v1.3
#
DISCID=860cf00a
DTITLE=Various Artist - Think I'd Better Dance Now
DYEAR=1992
DGENRE=R&B
TTITLE0=Heavy D and The Boyz - The Lover's Got What U Need 
TTITLE1=Wreckx'N'Effect - Ready Or Not (House Party II New Jack Theme)
TTITLE2=Jodeci - Gotta Love (Extended Mix)
TTITLE3=Mr Fingers - Closer (Frankie Foncett Dude Mix)
TTITLE4=Eric B. and Rakim - What's On Your Mind (House Party II Rap Them
TTITLE4=e)
TTITLE5=Jody Watley - I'm The One You Need (Funky Chicken Mix)
TTITLE6=JT Taylor - 8 Days A Week (12'' Club)
TTITLE7=Kid Panic And The Adventures Of Dean Dean - We Can Do This (12
TTITLE7='' Club Mix)
TTITLE8=Guy - Let's Stay Together (Extended Vocal Version)
TTITLE9=Son Of Bazerk - What Could Be Better Bitch (92 Version)
EXTD=
EXTT0=
EXTT1=
EXTT2=
EXTT3=
EXTT4=
EXTT5=
EXTT6=
EXTT7=
EXTT8=
EXTT9=
PLAYORDER=
